{"title":"My.Stepdaughter.Tossed.My.Salad.5.XXX.DVDRip.XviD-STARLETS","uid":7861741,"size":1463614412,"categoryP":"porn","categoryS":"movies","magnet":"?xt=urn:btih:102a0c49f2efcef6879e6c52bf18f9afa6e15328&amp;dn=My.Stepdaughter.Tossed.My.Salad.5.XXX.DVDRip.XviD-STARLETS&amp;tr=udp%3A%2F%2Ftracker.openbittorrent.com%3A80&amp;tr=udp%3A%2F%2Fopen.demonii.com%3A1337&amp;tr=udp%3A%2F%2Ftracker.coppersurfer.tk%3A6969&amp;tr=udp%3A%2F%2Fexodus.desync.com%3A6969","seeders":1,"leechers":3,"uploader":"R0thschild","files":3,"time":1353949126,"description":"Gallery: \n &lt;a href=&quot;\nhttp://imagedomino.com/?g=227301&quot; rel=&quot;nofollow&quot; target=&quot;_NEW&quot;&gt;\nhttp://imagedomino.com/?g=227301&lt;/a&gt;\n\nStudio\nLethal Hardcore\nStarring\nHaley Cummings, Mae Meyers, Stevie Shae, Missi Daniels\n\nStevie and her mom's new boy toy Chris are both after her cash, but if she wants his help running scams, she better be DTF and ready to Kiss Ass! Missi is cute brunette who always fantasized about shoving her tongue up her stepdad's ass and riding his big hard cock! Esperanza is spicy lil' Italian with a bubble butt who goes loca for man ass! When Mae's new Step-dad who works for the Police threatened to have her arrested, she buried her face in his ass and let him know that he has the right to remain horny! Haley is a freaky slut with a prodigious pair of all natural titties who loves giving him jobs and getting her tight lil' cunt pounded\n\nDuration                         : 1h 10mn\nBit rate                         : 1 232 Kbps\nWidth                            : 592 pixels\nHeight                           : 336 pixels\nDisplay aspect ratio             : 16:9\nFrame rate                       : 29.970 fps\nColor space                      : YUV\nChroma subsampling               : 4:2:0\nBit depth                        : 8 bits\nScan type                        : Progressive\nCompression mode                 : Lossy\nBits/(Pixel*Frame)               : 0.207\nStream size                      : 623 MiB (89%)\n\nDuration                         : 1h 18mn\nBit rate                         : 1 096 Kbps\nWidth                            : 592 pixels\nHeight                           : 336 pixels\nDisplay aspect ratio             : 16:9\nFrame rate                       : 29.970 fps\nColor space                      : YUV\nChroma subsampling               : 4:2:0\nBit depth                        : 8 bits\nScan type                        : Progressive\nCompression mode                 : Lossy\nBits/(Pixel*Frame)               : 0.184\nStream size                      : 613 MiB (88%)","torrent":{"xt":"urn:btih:102a0c49f2efcef6879e6c52bf18f9afa6e15328","amp;dn":"My.Stepdaughter.Tossed.My.Salad.5.XXX.DVDRip.XviD-STARLETS","amp;tr":["udp%3A%2F%2Ftracker.openbittorrent.com%3A80","udp%3A%2F%2Fopen.demonii.com%3A1337","udp%3A%2F%2Ftracker.coppersurfer.tk%3A6969","udp%3A%2F%2Fexodus.desync.com%3A6969"],"infoHash":"102a0c49f2efcef6879e6c52bf18f9afa6e15328","infoHashBuffer":{"type":"Buffer","data":[16,42,12,73,242,239,206,246,135,158,108,82,191,24,249,175,166,225,83,40]},"announce":[],"urlList":[]}}